# xmcd
#
# Track frame offsets: 
#        150
#        8434
#        17660
#        40344
#        66424
#        79681
#        82735
#        109689
#        129641
#        147383
#        148971
#        172794
#
# Disc length: 2641 seconds
#
# Revision: 1
# Processed by: cddbd v1.5.2PL0 Copyright (c) Steve Scherf et al.
# Submitted via: ExactAudioCopyFreeDBPlugin 1.0
#
DISCID=960a4f0c
DTITLE=Kemmuru - Mite Se Teiä...?
DYEAR=2003
DGENRE=Rap
TTITLE0=(untitled)
TTITLE1=Me Ollaan
TTITLE2=Paa Se Kii
TTITLE3=Anna Sen Näkyä
TTITLE4=Hunajaa
TTITLE5=Karri 6v
TTITLE6=Unohtununt
TTITLE7=Elämä Laittaa Saiffaa
TTITLE8=Kuontalossa
TTITLE9=Mc
TTITLE10=Iltas Pilas
TTITLE11=Unohtunut Live @ Pipo Silmillä (feat. Vähäiset Äänet)
EXTD=
EXTT0=
EXTT1=
EXTT2=
EXTT3=
EXTT4=
EXTT5=
EXTT6=
EXTT7=
EXTT8=
EXTT9=
EXTT10=
EXTT11=
PLAYORDER=
